# xmcd
#
# Track frame offsets: 
#        150
#        18964
#        40948
#        65410
#        85429
#        107209
#        129606
#        151142
#        187991
#        208987
#        229187
#
# Disc length: 3364 seconds
#
# Revision: 0
# Processed by: cddbd v1.5.2PL0 Copyright (c) Steve Scherf et al.
# Submitted via: ExactAudioCopy v1.1
#
DISCID=930d220b
DTITLE=Barney Bentall - The Drifter And The Preacher
DYEAR=2017
DGENRE=Blues
TTITLE0=The Miner (feat. Dustin Bentall)
TTITLE1=Moon At The Door
TTITLE2=The Drifter
TTITLE3=Hey Mama
TTITLE4=In The Morning
TTITLE5=The Preacher
TTITLE6=Won't Change The World (feat. Jim Cuddy)
TTITLE7=Don't Wait For Me Marie
TTITLE8=Say Goodbye To Alex Comfort
TTITLE9=The Ocean And You (A Song For John Mann)
TTITLE10=On The Shores Of Grise Fjord
EXTD=
EXTT0=
EXTT1=
EXTT2=
EXTT3=
EXTT4=
EXTT5=
EXTT6=
EXTT7=
EXTT8=
EXTT9=
EXTT10=
PLAYORDER=
